<svg width="32" height="32" viewBox="0 0 32 32" fill="none" xmlns="http://www.w3.org/2000/svg">
<g clip-path="url(#clip0_564_37)">
<rect width="32" height="32" rx="8" fill="black"/>
<g filter="url(#filter0_f_564_37)">
<ellipse cx="25" cy="38" rx="20" ry="19" fill="#7C3AED"/>
</g>
<g filter="url(#filter1_d_564_37)">
<g clip-path="url(#clip1_564_37)">
<g filter="url(#filter2_d_564_37)">
<path d="M11.6257 8.08334C12.0908 8.08334 12.5513 8.17494 12.981 8.35293C13.4107 8.53092 13.8011 8.79179 14.13 9.12067C14.4589 9.44954 14.7197 9.83997 14.8977 10.2697C15.0757 10.6994 15.1673 11.1599 15.1673 11.625V15.1667H11.6257C10.6863 15.1667 9.78551 14.7935 9.12132 14.1293C8.45712 13.4651 8.08399 12.5643 8.08399 11.625C8.08399 10.6857 8.45712 9.78486 9.12132 9.12067C9.78551 8.45648 10.6863 8.08334 11.6257 8.08334ZM11.6257 16.8333H15.1673V20.375C15.1673 21.0755 14.9596 21.7602 14.5704 22.3426C14.1813 22.9251 13.6281 23.379 12.981 23.6471C12.3338 23.9151 11.6217 23.9853 10.9347 23.8486C10.2477 23.712 9.61663 23.3747 9.12132 22.8793C8.62601 22.384 8.28869 21.753 8.15204 21.0659C8.01538 20.3789 8.08552 19.6668 8.35358 19.0197C8.62164 18.3725 9.07558 17.8194 9.65801 17.4302C10.2404 17.0411 10.9252 16.8333 11.6257 16.8333ZM16.834 16.8333H20.3757C21.0761 16.8333 21.7609 17.0411 22.3433 17.4302C22.9257 17.8194 23.3797 18.3725 23.6477 19.0197C23.9158 19.6668 23.9859 20.3789 23.8493 21.0659C23.7126 21.753 23.3753 22.384 22.88 22.8793C22.3847 23.3747 21.7536 23.712 21.0666 23.8486C20.3796 23.9853 19.6675 23.9151 19.0203 23.6471C18.3732 23.379 17.82 22.9251 17.4309 22.3426C17.0417 21.7602 16.834 21.0755 16.834 20.375V16.8333ZM21.0073 14.3917L20.789 14.8917C20.629 15.2583 20.1223 15.2583 19.9623 14.8917L19.744 14.3917C19.3612 13.5053 18.6601 12.7947 17.779 12.4L17.1065 12.1C17.0252 12.0624 16.9564 12.0023 16.9081 11.9269C16.8599 11.8514 16.8343 11.7637 16.8343 11.6742C16.8343 11.5846 16.8599 11.4969 16.9081 11.4215C16.9564 11.346 17.0252 11.2859 17.1065 11.2483L17.7415 10.965C18.645 10.5595 19.3585 9.82274 19.7348 8.90667L19.959 8.36584C19.9921 8.28239 20.0496 8.21082 20.1239 8.16039C20.1981 8.10997 20.2859 8.08301 20.3757 8.08301C20.4654 8.08301 20.5532 8.10997 20.6274 8.16039C20.7017 8.21082 20.7592 8.28239 20.7923 8.36584L21.0165 8.9075C21.3928 9.82357 22.1063 10.5603 23.0098 10.9658L23.6448 11.2483C23.7261 11.2859 23.7949 11.346 23.8432 11.4215C23.8914 11.4969 23.9171 11.5846 23.9171 11.6742C23.9171 11.7637 23.8914 11.8514 23.8432 11.9269C23.7949 12.0023 23.7261 12.0624 23.6448 12.1L22.9723 12.4C22.0912 12.7947 21.3901 13.5053 21.0073 14.3917Z" fill="#F5EFEE"/>
</g>
</g>
</g>
</g>
<defs>
<filter id="filter0_f_564_37" x="-19" y="-5" width="88" height="86" filterUnits="userSpaceOnUse" color-interpolation-filters="sRGB">
<feFlood flood-opacity="0" result="BackgroundImageFix"/>
<feBlend mode="normal" in="SourceGraphic" in2="BackgroundImageFix" result="shape"/>
<feGaussianBlur stdDeviation="12" result="effect1_foregroundBlur_564_37"/>
</filter>
<filter id="filter1_d_564_37" x="2" y="6" width="28" height="28" filterUnits="userSpaceOnUse" color-interpolation-filters="sRGB">
<feFlood flood-opacity="0" result="BackgroundImageFix"/>
<feColorMatrix in="SourceAlpha" type="matrix" values="0 0 0 0 0 0 0 0 0 0 0 0 0 0 0 0 0 0 127 0" result="hardAlpha"/>
<feOffset dy="4"/>
<feGaussianBlur stdDeviation="2"/>
<feComposite in2="hardAlpha" operator="out"/>
<feColorMatrix type="matrix" values="0 0 0 0 0 0 0 0 0 0 0 0 0 0 0 0 0 0 0.25 0"/>
<feBlend mode="normal" in2="BackgroundImageFix" result="effect1_dropShadow_564_37"/>
<feBlend mode="normal" in="SourceGraphic" in2="effect1_dropShadow_564_37" result="shape"/>
</filter>
<filter id="filter2_d_564_37" x="4.08398" y="8.08301" width="23.834" height="23.834" filterUnits="userSpaceOnUse" color-interpolation-filters="sRGB">
<feFlood flood-opacity="0" result="BackgroundImageFix"/>
<feColorMatrix in="SourceAlpha" type="matrix" values="0 0 0 0 0 0 0 0 0 0 0 0 0 0 0 0 0 0 127 0" result="hardAlpha"/>
<feOffset dy="4"/>
<feGaussianBlur stdDeviation="2"/>
<feComposite in2="hardAlpha" operator="out"/>
<feColorMatrix type="matrix" values="0 0 0 0 0 0 0 0 0 0 0 0 0 0 0 0 0 0 0.25 0"/>
<feBlend mode="normal" in2="BackgroundImageFix" result="effect1_dropShadow_564_37"/>
<feBlend mode="normal" in="SourceGraphic" in2="effect1_dropShadow_564_37" result="shape"/>
</filter>
<clipPath id="clip0_564_37">
<rect width="32" height="32" rx="8" fill="white"/>
</clipPath>
<clipPath id="clip1_564_37">
<rect width="20" height="20" fill="white" transform="translate(6 6)"/>
</clipPath>
</defs>
</svg>
